<?xml version="1.0" standalone="no"?>
<!DOCTYPE svg PUBLIC "-//W3C//DTD SVG 20010904//EN"
 "http://www.w3.org/TR/2001/REC-SVG-20010904/DTD/svg10.dtd">
<svg version="1.0" xmlns="http://www.w3.org/2000/svg"
 width="757.000000pt" height="757.000000pt" viewBox="0 0 757.000000 757.000000"
 preserveAspectRatio="xMidYMid meet">
<metadata>
Created by potrace 1.11, written by Peter Selinger 2001-2013
</metadata>
<g transform="translate(0.000000,757.000000) scale(0.100000,-0.100000)"
fill="#000000" stroke="none">
<path d="M610 7375 c-203 -47 -321 -122 -467 -298 -31 -36 -109 -203 -118
-252 -5 -22 -11 -47 -14 -55 -3 -8 -6 -1342 -8 -2965 l-2 -2950 24 -93 c69
-266 255 -458 525 -543 l75 -24 3155 0 c3559 0 3196 -9 3375 80 169 84 299
228 366 404 22 59 23 62 39 151 12 66 9 5908 -3 5955 -30 118 -101 268 -152
321 -6 7 -22 25 -36 40 -77 91 -242 188 -379 223 -73 19 -161 19 -3200 19
-2510 0 -3136 -3 -3180 -13z"/>
</g>
</svg>
